<svg xmlns="http://www.w3.org/2000/svg" viewBox="0 0 48 48" id="to-do-list"><g><polygon fill="#bfbfbf" points="8 47 8 41 1 41 8 47"></polygon><path fill="#bfbfbf" d="M44.78,37.81,39,39.36V10a3,3,0,0,0-3-3H12.94l22-5.9a3,3,0,0,1,3.67,2.12L46.9,34.13A3,3,0,0,1,44.78,37.81Z"></path><path fill="#424242" d="M47.87,33.87,39.58,3A4,4,0,0,0,34.68.13L12.81,6H4a4,4,0,0,0-4,4C0,43.14-.06,41.08.11,41.44s-.28-.13,7.24,6.32c.43.37-.9.24,28.65.24a4,4,0,0,0,4-4V40.13l5-1.35A4,4,0,0,0,47.87,33.87ZM35.2,2.07a2,2,0,0,1,2.44,1.41L38.58,7A3.94,3.94,0,0,0,36,6H20.53ZM7,44.83,3.7,42H7ZM38,44a2,2,0,0,1-2,2H9V41a1,1,0,0,0-1-1H2V10A2,2,0,0,1,4,8H36a2,2,0,0,1,2,2Zm6.52-7.16L40,38.06V12.26l5.93,22.13A2,2,0,0,1,44.52,36.84Z"></path><path fill="#bfbfbf" d="M34 26H12a1 1 0 0 1 0-2H34a1 1 0 0 1 0 2zM34 31H12a1 1 0 0 1 0-2H34a1 1 0 0 1 0 2zM8 36H6a1 1 0 0 1 0-2H8a1 1 0 0 1 0 2zM8 31H6a1 1 0 0 1 0-2H8a1 1 0 0 1 0 2zM8 26H6a1 1 0 0 1 0-2H8a1 1 0 0 1 0 2zM34 21H12a1 1 0 0 1 0-2H34a1 1 0 0 1 0 2zM8 21H6a1 1 0 0 1 0-2H8a1 1 0 0 1 0 2zM34 36H12a1 1 0 0 1 0-2H34a1 1 0 0 1 0 2z"></path><path fill="#fc6459" d="M12,14a3,3,0,0,1-3-3V5a1,1,0,0,1,2,0v6a1,1,0,0,0,2,0V5A3,3,0,0,0,7,5v8a1,1,0,0,1-2,0V5A5,5,0,0,1,15,5v6A3,3,0,0,1,12,14Z"></path></g></svg>